<svg xmlns:mydata="http://www.w3.org/2000/svg" mydata:contrastcolor="ffffff" mydata:companyname="Piotr Szczypka" version="1.1" width="100%" height="100%" xmlns="http://www.w3.org/2000/svg" xmlns:xlink="http://www.w3.org/1999/xlink" viewBox="65 140.93942260742188 420.0000305175781 188.12112426757812"><g fill="#27201E" fill-rule="nonzero" stroke="none" stroke-width="1" stroke-linecap="butt" stroke-linejoin="miter" stroke-miterlimit="10" stroke-dasharray="" stroke-dashoffset="0" font-family="none" font-weight="none" font-size="none" text-anchor="none" style="mix-blend-mode: normal"><g data-paper-data="{&quot;isGlobalGroup&quot;:true,&quot;bounds&quot;:{&quot;x&quot;:64.99999999999997,&quot;y&quot;:140.93944049885005,&quot;width&quot;:420,&quot;height&quot;:188.12111900229996}}"><g data-paper-data="{&quot;stacked&quot;:true,&quot;isPrimaryText&quot;:true}"><path d="M361.15556,164.65555c-7.0142,-5.91823 -20.38501,-10.3021 -36.38615,-11.83646c-9.75412,-0.98637 -19.72743,-1.09597 -26.30324,-0.21919c-6.68541,0.87677 -10.3021,2.95911 -6.35662,3.6167c0.98637,0.1096 1.31516,0.1096 1.53436,-0.1096c0.1096,-0.1096 0.1096,-0.21919 0,-0.32879c-0.54798,-0.1096 -0.21919,-0.32879 0.76718,-0.65758c3.72629,-1.42476 12.93243,-2.19194 20.8234,-1.75355c9.20613,0.54798 15.34356,1.42476 22.46735,3.17831c9.53493,2.30153 16.76832,5.58944 20.933,9.64452c1.75355,1.64395 2.73992,3.17831 3.28791,5.04145c0.54798,1.75355 0.43839,4.38387 -0.21919,6.02783c-1.53436,3.6167 -4.71266,6.795 -9.09654,9.09654c-6.68541,3.5071 -21.48098,7.23339 -34.08462,8.54855c-3.94549,0.43839 -9.64452,0.54798 -12.60364,0.32879c-1.31516,-0.1096 -2.63032,-0.32879 -2.84952,-0.32879c-0.21919,-0.1096 0.87677,-1.31516 5.69904,-6.35662c7.78138,-8.00057 15.45315,-15.67235 20.27542,-20.05622c3.3975,-3.06871 3.5071,-3.17831 4.05508,-3.17831c0.65758,0 1.20557,-0.54798 1.42476,-1.31516c0.21919,-0.65758 -0.21919,-0.87677 -1.53436,-0.76718c-1.42476,0.1096 -2.41113,0.54798 -4.93186,2.63032c-4.60307,3.72629 -14.13799,13.04202 -23.89211,23.23453c-3.94549,4.27428 -4.82226,5.15105 -5.15105,5.04145c-0.21919,0 -1.42476,-0.32879 -2.52073,-0.65758c-2.41113,-0.76718 -5.69904,-2.19194 -7.67178,-3.5071c-1.31516,-0.87677 -1.42476,-0.98637 -2.52073,-0.87677c-1.53436,0.1096 -1.53436,0.32879 0.1096,1.42476c2.63032,1.86315 6.24702,3.3975 10.95968,4.71266l0.87677,0.21919l-3.6167,3.94549c-9.53493,10.4117 -20.38501,22.79614 -25.31687,29.15276c-4.93186,6.24702 -9.20613,12.49404 -8.98694,13.15162c0.1096,0.21919 0.32879,0.32879 1.20557,0.32879c1.20557,0 1.20557,0 2.41113,-2.08234c3.94549,-6.46621 15.12436,-19.50824 33.20784,-39.23567c4.16468,-4.49347 4.49347,-4.82226 4.93186,-4.71266c0.32879,0 2.19194,0.21919 4.16468,0.32879c12.49404,0.76718 31.3447,-2.19194 45.0443,-7.0142c8.98694,-3.17831 14.24759,-8.43896 14.90517,-14.57638c0.32879,-3.28791 -1.75355,-7.34299 -5.04145,-10.08291z" data-paper-data="{&quot;glyphName&quot;:&quot;P&quot;,&quot;glyphIndex&quot;:0,&quot;firstGlyphOfWord&quot;:true,&quot;word&quot;:1,&quot;line&quot;:1,&quot;firstGlyphOfFirstLine&quot;:true}"></path><path d="M386.36284,197.20582c-1.53436,0.76718 -7.0142,3.17831 -9.64452,4.27428c-14.0284,5.69904 -15.78194,6.46621 -17.4259,6.46621c-0.65758,0 -0.87677,0 -1.20557,-0.32879c-0.43839,-0.32879 -0.43839,-0.43839 -0.21919,-1.09597c0.43839,-1.53436 5.26065,-6.9046 7.67178,-8.54855c0.54798,-0.43839 0.87677,-0.76718 0.87677,-0.87677c0,-0.1096 -0.32879,-0.21919 -0.76718,-0.21919c-0.65758,-0.1096 -0.87677,0 -1.86315,0.76718c-2.30153,1.64395 -6.46621,6.02783 -7.34299,7.78138c-0.43839,0.76718 -0.43839,2.19194 -0.1096,2.52073c0.1096,0.1096 0.43839,0.32879 0.76718,0.43839c0.76718,0.32879 2.95911,0.32879 4.38387,0c1.75355,-0.43839 3.5071,-1.09597 10.63089,-3.94549c11.94606,-4.93186 15.78194,-6.795 15.78194,-7.23339c0.1096,-0.32879 -1.09597,-0.32879 -1.53436,0zM370.03291,193.80831c0.54798,0 0.98637,-0.21919 1.75355,-0.76718c1.20557,-0.87677 2.19194,-1.42476 3.17831,-1.75355c0.32879,-0.1096 0.65758,-0.32879 0.65758,-0.43839c0,-0.54798 -2.08234,-0.32879 -3.17831,0.1096c-1.53436,0.76718 -3.17831,2.08234 -3.17831,2.63032c0,0.1096 0.32879,0.21919 0.76718,0.21919z" data-paper-data="{&quot;glyphName&quot;:&quot;i&quot;,&quot;glyphIndex&quot;:1,&quot;word&quot;:1,&quot;line&quot;:1}"></path><path d="M419.02269,196.87703c-0.32879,0 -1.20557,0.21919 -1.97274,0.54798c-2.52073,1.20557 -8.76775,3.28791 -12.82283,4.16468c-1.53436,0.43839 -2.52073,0.54798 -4.05508,0.54798c-1.09597,0 -2.08234,0 -2.30153,-0.1096c-0.32879,-0.1096 -0.32879,-0.21919 0.21919,-0.87677c0.87677,-1.31516 1.31516,-2.41113 1.42476,-3.3975c0.21919,-2.19194 -0.43839,-2.73992 -3.28791,-2.73992c-0.98637,0 -2.41113,0 -3.17831,-0.1096c-2.41113,-0.21919 -4.93186,0.65758 -7.89097,2.52073c-1.97274,1.31516 -5.15105,4.49347 -6.02783,6.02783c-2.19194,3.6167 -1.86315,6.9046 0.65758,7.67178c0.32879,0.1096 1.42476,0.1096 2.52073,0.1096c1.53436,-0.1096 2.30153,-0.21919 3.28791,-0.54798c3.17831,-1.09597 7.0142,-3.6167 9.97331,-6.68541l1.20557,-1.20557l1.31516,0.21919c2.63032,0.32879 6.24702,-0.32879 11.94606,-2.08234c6.9046,-2.08234 11.28847,-4.05508 8.98694,-4.05508zM393.26744,203.56243c-3.06871,2.95911 -6.795,5.37025 -9.86372,6.46621c-0.54798,0.21919 -1.20557,0.32879 -1.42476,0.32879c-0.65758,0 -1.42476,-0.43839 -1.64395,-1.09597c-1.64395,-2.95911 3.06871,-9.42533 8.98694,-12.38444c2.08234,-0.98637 3.17831,-1.31516 3.83589,-0.98637l0.43839,0.21919l-0.43839,0.65758c-0.98637,1.42476 -0.76718,3.28791 0.65758,4.60307l0.87677,0.87677zM396.22655,199.94574c-0.21919,0.43839 -0.54798,0.87677 -0.65758,0.87677c-0.21919,0 -0.76718,-0.98637 -0.87677,-1.53436c-0.1096,-1.09597 0.1096,-1.86315 0.87677,-2.63032c0.43839,-0.43839 0.87677,-0.76718 1.09597,-0.76718c0.32879,0 0.76718,0.65758 0.76718,1.20557c0,0.54798 -0.65758,1.97274 -1.20557,2.84952z" data-paper-data="{&quot;glyphName&quot;:&quot;o&quot;,&quot;glyphIndex&quot;:2,&quot;word&quot;:1,&quot;line&quot;:1}"></path><path d="M423.84495,195.45227c3.17831,-1.64395 13.59001,-8.32936 17.86428,-11.50767l2.30153,-1.75355l3.06871,0.21919l6.68541,0.43839c8.87734,0.65758 12.05565,0.87677 12.27485,0.65758c0.43839,-0.43839 -0.21919,-0.54798 -2.73992,-0.76718l-6.35662,-0.54798l-7.45259,-0.54798c-1.97274,-0.1096 -3.83589,-0.21919 -3.94549,-0.32879c-0.21919,-0.1096 0.1096,-0.43839 1.53436,-1.64395c4.05508,-3.3975 6.02783,-6.13742 5.15105,-7.0142c-0.32879,-0.32879 -3.17831,-0.21919 -4.38387,0.1096c-2.30153,0.65758 -6.24702,3.06871 -10.3021,6.13742l-2.52073,1.86315l-3.3975,-0.1096c-1.86315,0 -6.24702,-0.21919 -9.75412,-0.32879c-16.32993,-0.65758 -28.38558,-0.76718 -28.82397,-0.21919c-0.43839,0.43839 0.65758,0.43839 6.68541,0.43839c3.5071,0 8.54855,0.1096 11.28847,0.21919l21.04259,0.87677l1.75355,0.1096l-1.86315,1.64395c-3.17831,2.73992 -7.34299,6.9046 -10.63089,10.85009c-0.87677,1.20557 -1.75355,2.08234 -1.97274,2.19194c-0.54798,0.1096 -0.87677,0.65758 -0.65758,0.76718c0.21919,0.1096 -0.43839,1.20557 -1.64395,2.95911c-2.19194,3.17831 -4.27428,7.12379 -4.60307,8.76775c-0.43839,2.08234 -0.1096,3.3975 1.20557,3.94549c0.43839,0.21919 1.09597,0.21919 2.52073,0.21919c3.94549,-0.1096 7.12379,-1.53436 17.2067,-7.23339c3.28791,-1.97274 3.6167,-2.19194 7.67178,-4.49347c6.13742,-3.6167 6.9046,-4.05508 6.9046,-4.27428c0,-0.1096 -0.32879,-0.21919 -0.65758,-0.21919c-0.76718,0 -0.54798,-0.1096 -8.98694,4.71266c-12.49404,7.23339 -16.54912,9.20613 -20.27542,10.3021c-2.52073,0.65758 -3.3975,0.32879 -3.3975,-1.20557c0,-2.52073 2.30153,-7.0142 6.46621,-12.60364c1.42476,-1.86315 1.64395,-2.08234 2.73992,-2.63032zM434.47585,183.835c2.52073,-2.19194 2.08234,-2.08234 5.47984,-1.86315l1.53436,0.1096l-2.41113,1.75355c-2.52073,1.97274 -6.46621,4.60307 -10.19251,6.9046c-2.84952,1.86315 -3.17831,2.08234 -3.17831,1.86315c0,-0.32879 6.46621,-6.795 8.76775,-8.76775zM443.68198,176.71121c2.95911,-1.86315 6.24702,-3.5071 6.57581,-3.28791c0.32879,0.43839 -3.3975,4.38387 -6.35662,6.795l-1.53436,1.09597c-0.1096,0 -1.09597,-0.1096 -2.19194,-0.1096c-1.09597,-0.1096 -2.08234,-0.21919 -2.08234,-0.21919c-0.21919,-0.21919 3.3975,-2.73992 5.58944,-4.27428z" data-paper-data="{&quot;glyphName&quot;:&quot;t&quot;,&quot;glyphIndex&quot;:3,&quot;word&quot;:1,&quot;line&quot;:1}"></path><path d="M482.04088,197.31541c-0.76718,0.32879 -4.27428,1.86315 -6.46621,2.84952c-2.19194,0.98637 -6.02783,2.63032 -8.32936,3.6167c-5.26065,2.30153 -7.56218,3.17831 -9.53493,3.6167c-1.20557,0.32879 -1.53436,0.32879 -1.75355,0.21919c-0.65758,-0.54798 -0.21919,-1.53436 1.97274,-4.38387c3.3975,-4.49347 3.94549,-5.15105 3.94549,-6.13742c0,-0.87677 -0.65758,-1.20557 -2.95911,-1.42476c-2.19194,-0.21919 -2.30153,-0.32879 -2.30153,-0.87677c0,-0.65758 0.87677,-1.86315 1.53436,-2.30153c2.84952,-1.86315 6.9046,-4.60307 7.56218,-5.26065c1.20557,-1.09597 1.09597,-1.42476 -0.43839,-1.53436c-0.87677,0 -1.20557,0.1096 -2.30153,0.65758c-1.86315,0.87677 -4.27428,2.63032 -6.35662,4.60307c-1.53436,1.53436 -2.19194,1.97274 -4.05508,3.06871c-1.20557,0.65758 -3.06871,1.53436 -4.05508,1.97274c-1.09597,0.54798 -1.64395,0.87677 -1.64395,1.09597c0.1096,0.76718 2.08234,0.21919 5.37025,-1.31516c1.75355,-0.76718 1.75355,-0.76718 1.86315,-0.43839c0.21919,0.65758 0.76718,0.87677 2.73992,1.09597c1.97274,0.1096 2.63032,0.32879 2.63032,0.65758c0,0.43839 -1.20557,2.30153 -3.06871,4.71266c-2.41113,3.06871 -2.63032,3.28791 -2.95911,4.38387c-0.54798,1.31516 -0.21919,1.97274 1.20557,2.30153c0.87677,0.21919 3.6167,0 5.37025,-0.43839c2.73992,-0.65758 3.6167,-1.09597 15.12436,-6.24702c7.78138,-3.5071 9.86372,-4.49347 9.86372,-4.93186c0,-0.43839 -1.53436,-0.21919 -2.95911,0.43839z" data-paper-data="{&quot;glyphName&quot;:&quot;r&quot;,&quot;glyphIndex&quot;:4,&quot;lastGlyphOfWord&quot;:true,&quot;word&quot;:1,&quot;line&quot;:1,&quot;lastGlyphOfFirstLine&quot;:true}"></path><path d="M272.90339,242.03092c-0.30379,0 -0.55008,-0.24627 -0.55008,-0.55008v0c0,-0.30379 0.24627,-0.55008 0.55008,-0.55008h211.54653c0.30379,0 0.55008,0.24627 0.55008,0.55008v0c0,0.30379 -0.24627,0.55008 -0.55008,0.55008z" data-paper-data="{&quot;isStackedPrimarySeparatorLines&quot;:true,&quot;isRounded&quot;:true,&quot;isStackedPrimarySeparatorLine1&quot;:true}"></path><path d="M319.84388,253.46074c-1.34942,-0.55564 -2.54008,-0.7144 -5.87393,-0.63502c-1.66693,0 -3.49261,0.15875 -4.28638,0.23813c-6.27082,1.03191 -13.41479,3.01634 -20.79689,5.95331c-10.5572,4.12763 -15.55798,7.62024 -14.36732,10.00156c0.55564,1.11128 2.14319,1.90506 6.90584,3.41323c6.3502,2.06381 8.33463,2.85759 10.63658,4.20701c3.96887,2.30195 6.19144,4.9214 6.90584,8.0965c0.39689,1.50817 0.31751,3.57199 -0.23813,5.23891c-0.63502,2.30195 -2.06381,4.68327 -4.04825,6.98522c-6.03269,6.82646 -18.89184,13.09728 -26.19456,12.77977c-1.42879,-0.07938 -2.93697,-0.47626 -3.8895,-1.11128c-1.7463,-1.03191 -2.85759,-3.49261 -2.85759,-6.3502c0,-1.58755 0.23813,-2.93697 1.03191,-4.44514c1.27004,-2.77821 3.8895,-5.08016 8.49339,-7.54086c1.11128,-0.55564 1.19066,-0.87315 0.39689,-0.87315c-0.39689,0 -0.87315,0.23813 -2.06381,0.87315c-4.9214,2.85759 -7.30273,5.08016 -8.49339,8.17588c-1.11128,2.69883 -1.03191,6.11206 0.15875,8.49339c0.87315,1.82568 2.30195,2.77821 4.9214,3.25448c1.34942,0.23813 4.52452,0.23813 6.3502,0c3.8895,-0.55564 9.04903,-2.38132 13.49417,-4.84203c1.82568,-0.95253 5.15953,-3.1751 6.66771,-4.36576c1.7463,-1.42879 4.28638,-4.04825 5.39767,-5.6358c1.27004,-1.82568 2.30195,-3.8895 2.77821,-5.6358c0.39689,-1.66693 0.47626,-3.8895 0.07938,-5.39767c-0.31751,-1.11128 -0.95253,-2.54008 -1.66693,-3.49261c-0.63502,-0.95253 -2.30195,-2.61946 -3.41323,-3.49261c-2.69883,-2.06381 -5.47704,-3.33385 -11.58911,-5.31829c-6.19144,-2.06381 -7.30273,-2.69883 -7.30273,-3.96887c0,-1.42879 2.38132,-3.25448 7.3821,-5.71518c7.69961,-3.81012 18.41557,-7.3821 25.7183,-8.49339c8.49339,-1.42879 11.74786,0.39689 8.65214,4.84203c-1.27004,1.82568 -5.39767,5.6358 -9.92218,9.12841c-0.95253,0.79377 -1.7463,1.50817 -1.7463,1.66693c0,0.15875 0.15875,0.15875 0.79377,0.15875c0.55564,0 0.79377,-0.07938 0.79377,-0.15875c0,-0.07938 0.63502,-0.63502 1.42879,-1.19066c7.77899,-5.79455 11.50973,-9.76343 11.50973,-12.30351c0,-1.34942 -0.39689,-1.90506 -1.7463,-2.54008z" data-paper-data="{&quot;glyphName&quot;:&quot;S&quot;,&quot;glyphIndex&quot;:5,&quot;firstGlyphOfWord&quot;:true,&quot;word&quot;:2,&quot;line&quot;:2,&quot;firstGlyphOfSecondLine&quot;:true}"></path><path d="M337.94194,284.49732c-0.79377,-2.85759 -5.15953,-3.81012 -12.46226,-2.54008c-1.03191,0.15875 -1.82568,0.31751 -1.82568,0.23813c0,0 0.63502,-0.39689 1.34942,-0.95253c1.66693,-1.11128 3.25448,-2.61946 3.41323,-3.1751c0.07938,-0.23813 0,-0.47626 -0.07938,-0.55564c-0.31751,-0.31751 -2.14319,-0.15875 -3.49261,0.23813c-2.30195,0.79377 -6.27082,3.01634 -8.49339,4.68327c-1.42879,1.03191 -1.50817,1.27004 -0.79377,1.27004c0.39689,0 0.7144,-0.07938 1.27004,-0.55564c0.95253,-0.79377 2.85759,-1.98444 4.12763,-2.69883c2.38132,-1.42879 6.03269,-2.93697 6.27082,-2.69883c0.23813,0.15875 -0.31751,0.79377 -1.11128,1.50817l-2.69883,1.90506c-1.90506,1.34942 -2.22257,1.66693 -1.58755,1.82568c0.39689,0.15875 0.95253,0.07938 3.25448,-0.39689c6.27082,-1.19066 9.60467,-0.87315 11.03347,1.11128c0.31751,0.39689 0.39689,0.63502 0.47626,1.34942v0.87315l-8.33463,4.12763c-10.31907,5.08016 -12.70039,6.42957 -15.24047,8.57277c-1.98444,1.58755 -2.4607,2.93697 -1.27004,3.57199c0.47626,0.23813 0.7144,0.23813 2.06381,0.23813c2.38132,-0.15875 5.39767,-1.11128 8.89028,-2.77821c5.87393,-2.85759 10.63658,-6.42957 13.49417,-10.00156c1.19066,-1.58755 2.06381,-3.41323 1.7463,-5.15953zM335.79874,287.91055c-1.42879,2.30195 -4.68327,5.39767 -8.49339,7.93775c-3.73074,2.4607 -8.0965,4.52452 -11.50973,5.55642c-2.22257,0.63502 -3.1751,0.63502 -3.33385,0.07938c-0.23813,-1.03191 1.82568,-2.93697 5.79455,-5.31829c1.82568,-1.11128 4.60389,-2.54008 11.2716,-5.95331c7.14397,-3.57199 6.98522,-3.49261 6.27082,-2.30195z" data-paper-data="{&quot;glyphName&quot;:&quot;z&quot;,&quot;glyphIndex&quot;:6,&quot;word&quot;:2,&quot;line&quot;:2}"></path><path d="M362.7077,284.17981c-2.69883,1.27004 -15.55798,6.19144 -19.68561,7.46148c-0.87315,0.31751 -2.06381,0.63502 -2.69883,0.79377c-1.90506,0.31751 -2.14319,0.15875 -1.50817,-1.19066c0.31751,-0.7144 0.79377,-1.27004 2.22257,-2.61946c2.06381,-2.06381 4.04825,-3.49261 6.03269,-4.36576c1.42879,-0.63502 1.98444,-0.7144 2.38132,-0.55564c0.47626,0.23813 1.19066,0.15875 1.27004,-0.15875c0.07938,-0.47626 -0.31751,-0.55564 -1.66693,-0.55564c-1.58755,0 -2.54008,0.23813 -4.36576,1.19066c-2.22257,1.11128 -4.12763,2.61946 -5.87393,4.76265c-1.03191,1.27004 -1.82568,2.61946 -1.82568,3.09572c0,0.47626 0.47626,0.95253 0.87315,1.03191c0.79377,0.15875 1.7463,0.07938 2.85759,-0.07938c2.14319,-0.39689 8.33463,-2.61946 18.41557,-6.58833c3.81012,-1.50817 5.47704,-2.22257 5.47704,-2.4607c0,-0.31751 -0.87315,-0.23813 -1.90506,0.23813z" data-paper-data="{&quot;glyphName&quot;:&quot;c&quot;,&quot;glyphIndex&quot;:7,&quot;word&quot;:2,&quot;line&quot;:2}"></path><path d="M386.99721,284.49732c-0.79377,-2.85759 -5.15953,-3.81012 -12.46226,-2.54008c-1.03191,0.15875 -1.82568,0.31751 -1.82568,0.23813c0,0 0.63502,-0.39689 1.34942,-0.95253c1.66693,-1.11128 3.25448,-2.61946 3.41323,-3.1751c0.07938,-0.23813 0,-0.47626 -0.07938,-0.55564c-0.31751,-0.31751 -2.14319,-0.15875 -3.49261,0.23813c-2.30195,0.79377 -6.27082,3.01634 -8.49339,4.68327c-1.42879,1.03191 -1.50817,1.27004 -0.79377,1.27004c0.39689,0 0.7144,-0.07938 1.27004,-0.55564c0.95253,-0.79377 2.85759,-1.98444 4.12763,-2.69883c2.38132,-1.42879 6.03269,-2.93697 6.27082,-2.69883c0.23813,0.15875 -0.31751,0.79377 -1.11128,1.50817l-2.69883,1.90506c-1.90506,1.34942 -2.22257,1.66693 -1.58755,1.82568c0.39689,0.15875 0.95253,0.07938 3.25448,-0.39689c6.27082,-1.19066 9.60467,-0.87315 11.03347,1.11128c0.31751,0.39689 0.39689,0.63502 0.47626,1.34942v0.87315l-8.33463,4.12763c-10.31907,5.08016 -12.70039,6.42957 -15.24047,8.57277c-1.98444,1.58755 -2.4607,2.93697 -1.27004,3.57199c0.47626,0.23813 0.7144,0.23813 2.06381,0.23813c2.38132,-0.15875 5.39767,-1.11128 8.89028,-2.77821c5.87393,-2.85759 10.63658,-6.42957 13.49417,-10.00156c1.19066,-1.58755 2.06381,-3.41323 1.7463,-5.15953zM384.85402,287.91055c-1.42879,2.30195 -4.68327,5.39767 -8.49339,7.93775c-3.73074,2.4607 -8.0965,4.52452 -11.50973,5.55642c-2.22257,0.63502 -3.1751,0.63502 -3.33385,0.07938c-0.23813,-1.03191 1.82568,-2.93697 5.79455,-5.31829c1.82568,-1.11128 4.60389,-2.54008 11.2716,-5.95331c7.14397,-3.57199 6.98522,-3.49261 6.27082,-2.30195z" data-paper-data="{&quot;glyphName&quot;:&quot;z&quot;,&quot;glyphIndex&quot;:8,&quot;word&quot;:2,&quot;line&quot;:2}"></path><path d="M417.87504,283.70355c-0.39689,0 -0.95253,0.31751 -2.93697,1.58755c-4.04825,2.61946 -7.93775,4.9214 -12.85915,7.85837c-1.27004,0.79377 -1.27004,0.87315 -0.15875,-1.11128c1.58755,-2.69883 2.85759,-5.55642 2.77821,-6.11206c-0.07938,-0.23813 -0.15875,-0.31751 -0.87315,-0.31751c-1.03191,-0.07938 -0.87315,-0.15875 -3.65136,2.06381c-2.22257,1.82568 -4.20701,3.1751 -5.87393,4.04825c-1.11128,0.63502 -2.30195,1.19066 -2.54008,1.19066c-0.07938,0 -0.15875,-0.23813 -0.15875,-0.63502c0,-0.95253 1.11128,-3.33385 3.33385,-6.74708c0.55564,-0.79377 1.03191,-1.58755 0.95253,-1.66693c-0.15875,-0.23813 -1.03191,-0.15875 -1.42879,0.07938c-0.15875,0.15875 -0.87315,1.11128 -1.58755,2.14319c-2.38132,3.57199 -3.41323,6.3502 -2.61946,7.14397c0.31751,0.31751 0.39689,0.31751 1.42879,0.31751c0.87315,0 1.27004,-0.07938 1.98444,-0.31751c1.66693,-0.63502 3.96887,-2.06381 6.90584,-4.36576c0.95253,-0.63502 1.66693,-1.19066 1.66693,-1.11128c0,0.31751 -3.8895,7.06459 -4.52452,7.69961c-0.15875,0.23813 -1.42879,1.03191 -2.85759,1.82568c-2.69883,1.42879 -6.66771,3.73074 -11.43035,6.50895l-3.49261,1.98444c-4.76265,2.69883 -8.41401,5.31829 -10.5572,7.46148c-1.50817,1.42879 -1.98444,2.22257 -1.98444,3.09572c0,0.47626 0.07938,0.63502 0.47626,1.03191c0.23813,0.23813 0.63502,0.47626 1.03191,0.55564c0.87315,0.15875 3.57199,0.07938 4.9214,-0.23813c6.03269,-1.34942 13.65292,-6.58833 19.68561,-13.57355c1.50817,-1.7463 3.73074,-4.68327 5.15953,-6.74708l1.27004,-1.90506l2.85759,-1.7463l4.28638,-2.54008c0.7144,-0.39689 1.50817,-0.87315 1.66693,-1.03191c0.23813,-0.07938 1.7463,-1.03191 3.33385,-2.06381c3.73074,-2.30195 6.19144,-3.96887 6.19144,-4.20701c0.07938,-0.07938 -0.07938,-0.15875 -0.39689,-0.15875zM395.96686,298.15025c-2.38132,3.41323 -7.46148,9.12841 -10.47782,11.66849c-4.44514,3.65136 -9.28716,6.42957 -13.09728,7.30273c-0.95253,0.23813 -2.22257,0.31751 -2.61946,0.15875c-0.39689,-0.07938 -0.79377,-0.55564 -0.79377,-0.87315c0,-0.7144 0.55564,-1.50817 1.82568,-2.85759c2.85759,-2.85759 5.87393,-4.76265 19.3681,-12.38288l5.79455,-3.33385l0.39689,-0.23813z" data-paper-data="{&quot;glyphName&quot;:&quot;y&quot;,&quot;glyphIndex&quot;:9,&quot;word&quot;:2,&quot;line&quot;:2}"></path><path d="M441.21201,283.8623c-0.15875,-0.23813 -0.87315,-0.15875 -1.7463,0.31751c-0.55564,0.23813 -2.38132,1.03191 -4.20701,1.7463c-3.41323,1.27004 -3.65136,1.34942 -7.14397,2.54008l-2.06381,0.79377l0.95253,-1.11128c1.11128,-1.11128 1.58755,-1.98444 1.58755,-2.77821c0,-1.11128 -0.63502,-1.42879 -2.85759,-1.34942c-1.19066,0.07938 -1.66693,0.15875 -2.77821,0.55564c-2.14319,0.7144 -6.50895,2.93697 -8.17588,4.20701c-0.7144,0.47626 -0.7144,0.31751 0,-0.39689c2.06381,-2.14319 3.96887,-4.52452 3.8895,-4.68327c0,-0.07938 -0.31751,-0.07938 -0.63502,-0.07938c-0.55564,0 -0.63502,0 -1.27004,0.63502l-5.79455,6.50895l-2.30195,2.61946l-2.77821,3.09572c-1.19066,1.34942 -2.61946,3.09572 -4.20701,5.15953l-1.82568,2.38132c-0.15875,0.15875 -0.39689,0.39689 -0.47626,0.55564c-0.15875,0.07938 -0.39689,0.39689 -0.55564,0.63502l-1.27004,1.66693c-0.55564,0.7144 -1.66693,2.06381 -2.38132,3.09572c-2.30195,3.01634 -3.09572,4.28638 -2.93697,4.44514c0.07938,0.07938 0.31751,0.07938 0.63502,0.07938c0.55564,0 0.63502,0 1.11128,-0.7144c0.63502,-1.11128 2.77821,-3.8895 5.79455,-7.62024l4.52452,-5.47704c0.07938,-0.07938 1.19066,-1.50817 2.61946,-3.09572c2.22257,-2.77821 2.4607,-2.93697 2.54008,-2.69883c0.07938,0.23813 0.31751,0.39689 0.55564,0.47626c0.55564,0.23813 2.69883,0.15875 3.8895,-0.07938c2.4607,-0.47626 5.95331,-1.98444 8.8109,-3.73074c1.19066,-0.7144 1.90506,-1.03191 3.73074,-1.66693c2.69883,-0.95253 7.06459,-2.54008 10.23969,-3.81012c3.73074,-1.42879 4.68327,-1.90506 4.52452,-2.22257zM423.74897,289.4981c-1.27004,0.87315 -1.66693,1.03191 -5.31829,1.82568l-4.28638,0.95253c-0.95253,0.23813 -2.14319,0.63502 -2.69883,0.79377l-0.87315,0.31751l0.55564,-0.47626c1.03191,-0.95253 3.57199,-2.93697 4.52452,-3.65136c3.57199,-2.4607 8.01712,-4.52452 10.16031,-4.68327c0.79377,-0.07938 0.87315,-0.07938 1.19066,0.23813c0.31751,0.47626 0.31751,0.55564 -0.07938,1.34942c-0.39689,0.87315 -1.66693,2.22257 -3.1751,3.33385zM418.43068,292.6732c-2.14319,1.11128 -4.04825,1.82568 -5.6358,2.14319c-1.11128,0.23813 -1.50817,0.23813 -1.7463,0.07938c-0.55564,-0.39689 0.55564,-1.11128 2.4607,-1.66693c1.50817,-0.47626 6.82646,-1.66693 6.90584,-1.58755c0,0 -0.87315,0.47626 -1.98444,1.03191z" data-paper-data="{&quot;glyphName&quot;:&quot;p&quot;,&quot;glyphIndex&quot;:10,&quot;word&quot;:2,&quot;line&quot;:2}"></path><path d="M464.62836,263.77981c-4.44514,1.98444 -13.89106,9.36654 -21.74942,17.06615c-0.87315,0.87315 -1.7463,1.58755 -1.98444,1.66693c-0.39689,0.15875 -0.79377,0.47626 -0.7144,0.63502c0.07938,0.07938 -1.50817,1.82568 -3.41323,3.73074c-3.96887,4.12763 -4.76265,4.9214 -4.76265,5.23891c0,0.15875 0.15875,0.15875 0.63502,0.15875c0.63502,0 0.87315,-0.07938 3.57199,-1.82568c4.28638,-2.61946 3.8895,-2.4607 3.8895,-2.14319c0,0.15875 0.15875,0.63502 0.31751,1.03191c0.39689,1.03191 1.34942,1.98444 2.38132,2.38132c1.7463,0.7144 4.68327,0.7144 7.14397,0.07938c3.41323,-0.95253 14.92296,-7.14397 15.1611,-7.85837c0.15875,-0.31751 -0.79377,-0.15875 -1.7463,0.39689c-2.54008,1.27004 -11.74786,6.3502 -14.20857,6.98522c-1.7463,0.47626 -4.04825,0.47626 -5.15953,0.07938c-1.27004,-0.55564 -2.06381,-1.42879 -2.4607,-2.85759c-0.07938,-0.31751 -0.07938,-0.31751 0.47626,-0.07938c0.39689,0.15875 0.95253,0.15875 2.22257,0.07938c1.42879,0 1.82568,-0.07938 2.69883,-0.39689c3.09572,-1.11128 6.19144,-3.73074 6.19144,-5.23891c0,-0.47626 -0.07938,-0.55564 -0.39689,-0.7144c-0.63502,-0.23813 -2.54008,-0.07938 -3.73074,0.31751c-2.69883,0.95253 -6.19144,2.69883 -10.08094,5.15953c-1.42879,0.87315 -2.69883,1.66693 -2.93697,1.82568c-0.23813,0.07938 1.11128,-1.27004 2.93697,-3.09572l3.33385,-3.25448l1.82568,-1.03191c6.03269,-3.09572 13.81168,-8.01712 18.01868,-11.2716c3.8895,-3.09572 6.42957,-5.95331 6.11206,-6.98522c-0.15875,-0.79377 -1.82568,-0.79377 -3.57199,-0.07938zM447.48283,284.02106c1.58755,-0.79377 3.33385,-1.42879 3.81012,-1.42879c0.47626,0 0.55564,0.31751 0.15875,0.95253c-0.79377,1.34942 -3.41323,3.33385 -5.47704,4.04825c-1.19066,0.47626 -2.14319,0.63502 -2.93697,0.39689c-0.55564,-0.15875 -1.19066,-0.47626 -1.34942,-0.79377c0,-0.15875 3.57199,-2.22257 5.79455,-3.1751zM462.7233,268.85996c-2.85759,2.4607 -7.30273,5.55642 -13.0179,8.96965c-1.7463,1.11128 -3.57199,2.14319 -4.04825,2.38132l-0.79377,0.47626l0.95253,-0.95253c4.84203,-4.60389 12.06537,-10.5572 16.51051,-13.49417c1.58755,-1.11128 3.96887,-2.38132 4.36576,-2.38132c0.79377,0 -1.27004,2.61946 -3.96887,5.00078z" data-paper-data="{&quot;glyphName&quot;:&quot;k&quot;,&quot;glyphIndex&quot;:11,&quot;word&quot;:2,&quot;line&quot;:2}"></path><path d="M484.47273,283.78293c-0.39689,0 -0.87315,0.15875 -1.7463,0.63502c-1.34942,0.7144 -11.35098,5.47704 -13.41479,6.3502c-1.66693,0.7144 -3.01634,1.11128 -3.1751,0.87315c-0.39689,-0.31751 0.7144,-2.22257 2.54008,-4.36576c0.79377,-0.95253 1.19066,-1.27004 1.90506,-1.66693c2.85759,-1.50817 4.36576,-3.33385 3.33385,-3.96887c-1.27004,-0.87315 -5.15953,0 -9.12841,1.98444c-2.38132,1.19066 -3.96887,2.22257 -5.31829,3.49261c-1.42879,1.34942 -1.90506,2.22257 -1.42879,2.69883c0.39689,0.39689 2.38132,0.31751 3.49261,-0.07938c1.11128,-0.39689 2.93697,-1.34942 4.60389,-2.30195c0.7144,-0.31751 1.19066,-0.63502 1.27004,-0.63502c0,0 -0.39689,0.55564 -0.87315,1.19066c-1.19066,1.58755 -1.7463,2.61946 -1.7463,3.41323c0,0.47626 0.07938,0.63502 0.23813,0.7144c0.39689,0.23813 2.22257,0.15875 3.1751,-0.07938c1.42879,-0.39689 2.69883,-0.95253 9.28716,-4.20701c7.69961,-3.73074 8.25526,-4.04825 6.98522,-4.04825zM466.13654,286.40238c-2.85759,1.66693 -3.8895,2.14319 -5.08016,2.61946c-0.47626,0.23813 -1.03191,0.39689 -1.27004,0.47626c-0.39689,0.07938 -0.47626,0 -0.47626,-0.15875c0,-0.79377 2.4607,-2.93697 5.23891,-4.52452c3.41323,-1.98444 8.01712,-3.41323 8.25526,-2.54008c0,0.23813 -0.47626,0.87315 -1.82568,1.90506c-0.87315,0.7144 -0.95253,0.79377 -1.66693,0.79377c-0.55564,0 -0.87315,0.07938 -3.1751,1.42879z" data-paper-data="{&quot;glyphName&quot;:&quot;a&quot;,&quot;glyphIndex&quot;:12,&quot;lastGlyphOfWord&quot;:true,&quot;word&quot;:2,&quot;line&quot;:2,&quot;lastGlyphOfSecondLine&quot;:true}"></path></g><g data-paper-data="{&quot;fillRule&quot;:&quot;nonzero&quot;,&quot;fillRuleOriginal&quot;:&quot;nonzero&quot;,&quot;isIcon&quot;:true,&quot;iconStyle&quot;:&quot;standalone&quot;,&quot;selectedEffects&quot;:{&quot;container&quot;:&quot;&quot;,&quot;transformation&quot;:&quot;&quot;,&quot;pattern&quot;:&quot;&quot;},&quot;bounds&quot;:{&quot;x&quot;:64.99999999999997,&quot;y&quot;:140.93944049885005,&quot;width&quot;:144.84960991848672,&quot;height&quot;:188.12111900229996},&quot;iconType&quot;:&quot;initial&quot;,&quot;initialText&quot;:&quot;PS&quot;,&quot;rawInitialId&quot;:543,&quot;monogramSpecial&quot;:&quot;melted-letters&quot;,&quot;suitableAsStandaloneIcon&quot;:true}"><path d="M180.69633,181.82736c-0.3667,-4.95056 -1.28348,-10.08447 -3.11702,-14.85166c-5.31726,-13.93489 -16.68521,-26.03626 -39.60445,-26.03626c-20.16894,0 -33.55376,9.71775 -39.7878,23.65266h16.68521c4.40049,-6.23403 11.5513,-10.26782 22.18582,-10.26782c12.10136,0 19.0688,5.50061 22.91924,12.10136c2.56695,4.40049 3.85044,9.35105 4.76721,13.38484c0.55007,2.56695 0.73342,6.23403 0.91677,7.88422h15.40173c0,-1.46683 -0.18335,-4.40049 -0.3667,-5.86733zM133.94108,238.48372c6.60074,3.30037 11.91801,6.23403 16.13515,9.1677l-70.0412,0.18335v55.73959h-15.03503v-137.14874h92.96044c2.3836,4.40049 3.85044,6.60074 5.13391,13.38484h-83.05933v54.45612h45.65513c2.56695,1.46683 5.31726,2.75031 8.25093,4.21714zM179.59621,167.3424c1.83354,5.31726 2.56695,10.45117 2.93366,15.21838c8.43428,3.30037 12.10136,10.45117 12.10136,24.38608c0,18.3354 -6.23403,26.58632 -21.0857,26.76967l-9.90112,0.18335c4.40049,3.30037 12.46807,11.18459 13.38484,13.75154c11.00124,-0.55007 32.82036,-7.1508 32.82036,-41.07128c0,-24.93613 -12.28471,-36.12072 -30.2534,-39.23774zM183.9967,279.73835c0,29.15327 -15.58508,49.32221 -47.67202,49.32221c-34.83725,0 -46.38854,-23.10259 -48.03872,-49.32221h15.58508c1.46683,19.98557 11.73465,35.93737 33.00371,35.93737c20.16894,0 31.17017,-10.81788 31.17017,-34.6539c0,-14.66831 -4.03379,-24.38608 -15.21838,-33.37041c-8.61763,-6.96745 -15.21838,-8.80099 -23.46931,-13.38484c-23.65266,-13.20148 -35.38731,-24.93613 -35.38731,-49.32221v-3.30037h15.58508v1.83354c0,19.25217 8.61763,28.05315 32.08694,39.42109c7.51751,3.66708 13.93489,7.1508 19.0688,11.00124c6.05068,4.40049 10.81788,8.80099 14.30161,13.75154c6.41739,8.98435 8.98435,19.25217 8.98435,32.08694z" data-paper-data="{&quot;isPathIcon&quot;:true}"></path></g><path d="M230.03712,329.06056v-188.12112h0.81702v188.12112z" data-paper-data="{&quot;isShapeTextSeparator&quot;:true}"></path></g></g></svg>