<?xml version="1.0" encoding="UTF-8" standalone="no"?> <svg id="Layer_1" data-name="Layer 1" xmlns="http://www.w3.org/2000/svg" viewBox="0 0 128 128"><defs><style>.cls-1{fill:#2d3e50;}</style></defs><title>n</title><path class="cls-1" d="M68.50486,56.16429a7.55206,7.55206,0,0,0-2.78651-2.18615,8.7295,8.7295,0,0,0-3.72618-.77,8.50264,8.50264,0,0,0-3.75231.79616A7.90766,7.90766,0,0,0,55.47942,56.21a10.01357,10.01357,0,0,0-1.7293,3.413,16.50649,16.50649,0,0,0,0,8.82284,9.88343,9.88343,0,0,0,1.7293,3.38687,7.65836,7.65836,0,0,0,2.76042,2.19265,9.53812,9.53812,0,0,0,7.4785,0,7.6371,7.6371,0,0,0,2.78651-2.19265,9.99922,9.99922,0,0,0,1.72934-3.38687,14.99394,14.99394,0,0,0,.60036-4.42449,15.2532,15.2532,0,0,0-.60036-4.444A10.07066,10.07066,0,0,0,68.50486,56.16429Z"/><path class="cls-1" d="M101.79278,67.17325a10.079,10.079,0,0,0-4.94654-.9854H92.13466V74.7888c.54161.06524,1.13548.11746,1.775.15008s1.35084.04569,2.11434.04569a13.02767,13.02767,0,0,0,5.436-.95927,3.57255,3.57255,0,0,0,2.06866-3.55655A3.49036,3.49036,0,0,0,101.79278,67.17325Z"/><path class="cls-1" d="M100.73561,59.57725A3.08511,3.08511,0,0,0,102.23,56.719a2.944,2.944,0,0,0-1.54007-2.83869,9.92262,9.92262,0,0,0-4.51582-.81572c-.64608,0-1.33128.00653-2.0687.02609-.73741.01306-1.39648.05222-1.97075.11746v7.25664h3.65441A10.15477,10.15477,0,0,0,100.73561,59.57725Z"/><path class="cls-1" d="M125.42907,55.40728A61.16865,61.16865,0,1,0,4.30441,72.58962a60.23916,60.23916,0,0,0,1.85333,8.58789A61.46323,61.46323,0,0,0,13.819,96.376c.02609.4829.05871.97233.06524,1.45523A28.17607,28.17607,0,0,1,2.549,121.076a1.46464,1.46464,0,0,0,.65258,2.62337,43.594,43.594,0,0,0,30.6254-6.99564c.27411-.1827.54818-.372.81572-.55467l.22189-.16314a72.30845,72.30845,0,0,0,22.4486,8.73147,61.20945,61.20945,0,0,0,68.11591-69.31014ZM39.64143,69.50295a18.7,18.7,0,0,1-.55471,4.61372,8.87427,8.87427,0,0,1-5.6252,6.32343,15.86656,15.86656,0,0,1-5.88621.93971,17.68509,17.68509,0,0,1-5.62524-.79612c-.33278-.11093-.65907-.22839-.9658-.35238A3.19356,3.19356,0,0,1,22.17848,74.071a3.21835,3.21835,0,0,1,1.22031.23492c.04569.01956.09137.03262.13706.05222a9.33959,9.33959,0,0,0,3.45865.62645A5.0558,5.0558,0,0,0,30.936,73.64026q1.204-1.35084,1.20729-4.52235V51.13944a3.74905,3.74905,0,0,1,7.49809,0Zm37.66015,2.04257a15.46673,15.46673,0,0,1-3.48473,5.43593,14.37723,14.37723,0,0,1-5.25976,3.289,19.15275,19.15275,0,0,1-6.56492,1.10935,18.6077,18.6077,0,0,1-6.44092-1.10935,14.8146,14.8146,0,0,1-5.28589-3.289,15.34527,15.34527,0,0,1-3.55655-5.43593,20.07939,20.07939,0,0,1-1.29862-7.52422,19.421,19.421,0,0,1,1.34431-7.51769,16.00413,16.00413,0,0,1,3.62832-5.46206,14.98131,14.98131,0,0,1,5.28589-3.31506,18.15751,18.15751,0,0,1,6.32347-1.10286,18.60468,18.60468,0,0,1,6.44092,1.10286,14.69647,14.69647,0,0,1,5.28585,3.31506A15.67864,15.67864,0,0,1,77.282,56.5036a20.20145,20.20145,0,0,1,1.29209,7.51769A20.49048,20.49048,0,0,1,77.30157,71.54551Zm29.99895,6.94991q-3.82739,2.64295-11.36787,2.64293H84.83233v-.95927H84.8258V47.00862h10.141a34.43859,34.43859,0,0,1,5.84057.45681,13.75517,13.75517,0,0,1,4.59412,1.55967,8.19082,8.19082,0,0,1,3.00187,2.91046,8.46284,8.46284,0,0,1,1.08326,4.444A7.065,7.065,0,0,1,105.643,62.677a7.89153,7.89153,0,0,1,4.32658,3.26941,9.38442,9.38442,0,0,1,1.14854,4.6659A8.96017,8.96017,0,0,1,107.30052,78.49543Z"/></svg>