<?xml version="1.0" encoding="iso-8859-1"?>
<!-- Generator: Adobe Illustrator 19.0.0, SVG Export Plug-In . SVG Version: 6.00 Build 0)  -->
<svg version="1.1" id="Layer_1" xmlns="http://www.w3.org/2000/svg" xmlns:xlink="http://www.w3.org/1999/xlink" x="0px" y="0px"
	 viewBox="0 0 512 512" fill="transparent" style="enable-background:new 0 0 512 512;" xml:space="preserve">
<rect x="7.286" y="256" style="fill:#ED1F34;" width="497.43" height="248.71"/>
<rect x="7.286" y="7.286" style="fill:#FFFFFF;" width="497.43" height="248.71"/>
<path d="M504.714,0H7.286C3.262,0,0,3.262,0,7.286v497.427C0,508.738,3.262,512,7.286,512h497.427c4.024,0,7.286-3.262,7.286-7.286
	V7.286C512,3.262,508.738,0,504.714,0z M14.573,497.427v-234.14H73.61c4.024,0,7.286-3.262,7.286-7.286s-3.262-7.286-7.286-7.286
	H14.573V14.573h482.854v234.14H106.772c-4.024,0-7.286,3.262-7.286,7.286c0,4.024,3.262,7.286,7.286,7.286h390.655v234.14H14.573
	V497.427z"/>
<g>
</g>
<g>
</g>
<g>
</g>
<g>
</g>
<g>
</g>
<g>
</g>
<g>
</g>
<g>
</g>
<g>
</g>
<g>
</g>
<g>
</g>
<g>
</g>
<g>
</g>
<g>
</g>
<g>
</g>
</svg>
